<?xml version="1.0" encoding="UTF-8"?>
<svg width="206px" height="109px" viewBox="0 0 206 109" version="1.1" xmlns="http://www.w3.org/2000/svg" xmlns:xlink="http://www.w3.org/1999/xlink">
    <!-- Generator: Sketch 59 (86127) - https://sketch.com -->
    <title>Group 4</title>
    <desc>Created with Sketch.</desc>
    <g id="20200706" stroke="none" stroke-width="1" fill="none" fill-rule="evenodd">
        <g id="AccessDenied-02" transform="translate(-805.000000, -307.000000)">
            <g id="Group-4" transform="translate(805.500000, 307.000000)">
                <path d="M7.5,107 L7.5,53 L29.5,53 L29.5,72 L57.5,72 L57.5,23 L90.5,23 L90.5,53 L112.5,53 L112.5,0 L145.5,0 L145.5,23 L173.5,23 L173.5,53 L187.5,53 L187.5,107 L7.5,107 Z" id="Combined-Shape" fill="#EEF1FA"></path>
                <g id="Group-3" transform="translate(0.000000, 21.500000)">
                    <g id="stopping" transform="translate(38.500000, 42.500000)" fill="#CED4DE" fill-rule="nonzero">
                        <path d="M40.9411765,0 L38.1176471,0 L38.1176471,3.84552846 L9.88235294,3.84552846 L9.88235294,0 L7.05882353,0 L7.05882353,3.84552846 L0,3.84552846 L0,22.0243902 L7.05882353,22.0243902 L7.05882353,40.203252 L2.82352941,40.203252 L2.82352941,43 L14.1176471,43 L14.1176471,40.203252 L9.88235294,40.203252 L9.88235294,22.0243902 L38.1176471,22.0243902 L38.1176471,40.203252 L33.8823529,40.203252 L33.8823529,43 L45.1764706,43 L45.1764706,40.203252 L40.9411765,40.203252 L40.9411765,22.0243902 L48,22.0243902 L48,3.84552846 L40.9411765,3.84552846 L40.9411765,0 Z M39.9175059,6.64227642 L31.5217412,19.2276423 L22.2001412,19.2276423 L30.5959059,6.64227642 L39.9175059,6.64227642 Z M2.82352941,6.64227642 L14.5057412,6.64227642 L6.10997647,19.2276423 L2.82352941,19.2276423 L2.82352941,6.64227642 Z M9.49425882,19.2276423 L17.8900235,6.64227642 L27.2116235,6.64227642 L18.8158588,19.2276423 L9.88235294,19.2276423 L9.49425882,19.2276423 L9.49425882,19.2276423 Z M45.1764706,19.2276423 L40.9411765,19.2276423 L38.1176471,19.2276423 L34.9060235,19.2276423 L43.3017882,6.64227642 L45.1764706,6.64227642 L45.1764706,19.2276423 Z" id="Shape"></path>
                    </g>
                    <g id="Group" transform="translate(94.500000, 20.500000)" fill="#CED4DE" fill-rule="nonzero">
                        <g id="stopping-copy">
                            <path d="M40.9411765,22 L38.1176471,22 L38.1176471,25.8455285 L9.88235294,25.8455285 L9.88235294,22 L7.05882353,22 L7.05882353,25.8455285 L0,25.8455285 L0,44.0243902 L7.05882353,44.0243902 L7.05882353,62.203252 L2.82352941,62.203252 L2.82352941,65 L14.1176471,65 L14.1176471,62.203252 L9.88235294,62.203252 L9.88235294,44.0243902 L38.1176471,44.0243902 L38.1176471,62.203252 L33.8823529,62.203252 L33.8823529,65 L45.1764706,65 L45.1764706,62.203252 L40.9411765,62.203252 L40.9411765,44.0243902 L48,44.0243902 L48,25.8455285 L40.9411765,25.8455285 L40.9411765,22 Z M39.9175059,28.6422764 L31.5217412,41.2276423 L22.2001412,41.2276423 L30.5959059,28.6422764 L39.9175059,28.6422764 Z M2.82352941,28.6422764 L14.5057412,28.6422764 L6.10997647,41.2276423 L2.82352941,41.2276423 L2.82352941,28.6422764 Z M9.49425882,41.2276423 L17.8900235,28.6422764 L27.2116235,28.6422764 L18.8158588,41.2276423 L9.88235294,41.2276423 L9.49425882,41.2276423 L9.49425882,41.2276423 Z M45.1764706,41.2276423 L40.9411765,41.2276423 L38.1176471,41.2276423 L34.9060235,41.2276423 L43.3017882,28.6422764 L45.1764706,28.6422764 L45.1764706,41.2276423 Z" id="Shape"></path>
                            <path d="M40.9411765,0 L38.1176471,0 L38.1176471,3.84552846 L9.88235294,3.84552846 L9.88235294,0 L7.05882353,0 L7.05882353,3.84552846 L0,3.84552846 L0,22.0243902 L7.05882353,22.0243902 L9.88235294,22.0243902 L38.1176471,22.0243902 L40.9411765,22.0243902 L48,22.0243902 L48,3.84552846 L40.9411765,3.84552846 L40.9411765,0 Z M39.9175059,6.64227642 L31.5217412,19.2276423 L22.2001412,19.2276423 L30.5959059,6.64227642 L39.9175059,6.64227642 Z M2.82352941,6.64227642 L14.5057412,6.64227642 L6.10997647,19.2276423 L2.82352941,19.2276423 L2.82352941,6.64227642 Z M9.49425882,19.2276423 L17.8900235,6.64227642 L27.2116235,6.64227642 L18.8158588,19.2276423 L9.88235294,19.2276423 L9.49425882,19.2276423 L9.49425882,19.2276423 Z M45.1764706,19.2276423 L40.9411765,19.2276423 L38.1176471,19.2276423 L34.9060235,19.2276423 L43.3017882,6.64227642 L45.1764706,6.64227642 L45.1764706,19.2276423 Z" id="Shape"></path>
                        </g>
                    </g>
                    <g id="Group-2" stroke="#CED4DE" stroke-linecap="round" stroke-width="2">
                        <line x1="2.5" y1="86.5" x2="204.5" y2="86.5" id="Line"></line>
                        <line x1="159.5" y1="47.5" x2="187.5" y2="47.5" id="Line-Copy"></line>
                        <line x1="170.5" y1="20.5" x2="184.5" y2="20.5" id="Line-Copy-2"></line>
                        <line x1="32.5" y1="22.5" x2="47.5" y2="22.5" id="Line-Copy-4"></line>
                        <line x1="0.5" y1="63.5" x2="15.5" y2="63.5" id="Line-Copy-5"></line>
                        <line x1="100.5" y1="0.5" x2="123.5" y2="0.5" id="Line-Copy-3"></line>
                    </g>
                </g>
            </g>
        </g>
    </g>
</svg>