<?xml version="1.0" encoding="utf-8"?>
<!-- Generator: Adobe Illustrator 22.1.0, SVG Export Plug-In . SVG Version: 6.00 Build 0)  -->
<svg version="1.1" id="Layer_1" xmlns="http://www.w3.org/2000/svg" xmlns:xlink="http://www.w3.org/1999/xlink" x="0px" y="0px"
	 viewBox="0 0 23 23" style="enable-background:new 0 0 23 23;" xml:space="preserve">
<style type="text/css">
	.st0{fill-rule:evenodd;clip-rule:evenodd;fill:#fff}
</style>
<g>
	<g>
		<path class="st0" d="M12,1h-2L3,5v7c0,5,4,10,7,10h2c3,0,7-5,7-10V5L12,1z M11,6c1.7,0,3,1.3,3,3c0,1.7-1.3,3-3,3s-3-1.3-3-3
			C8,7.3,9.3,6,11,6z M12,19h-2c-2,0-4-3-4-6h10C16,16,14,19,12,19z"/>
	</g>
</g>
</svg>
