<?xml version="1.0" encoding="utf-8"?>
<!-- Generator: Adobe Illustrator 19.1.1, SVG Export Plug-In . SVG Version: 6.00 Build 0)  -->
<svg version="1.1" id="Layer_1" xmlns="http://www.w3.org/2000/svg" xmlns:xlink="http://www.w3.org/1999/xlink" x="0px" y="0px"
	 viewBox="-462 263 35 35" style="enable-background:new -462 263 35 35;" xml:space="preserve">
<style type="text/css">
	.st0{fill:#FFFFFF;}
</style>
<g>
	<path class="st0" d="M-444.5,267.1c-7.4,0-13.4,6-13.4,13.4s6,13.4,13.4,13.4s13.4-6,13.4-13.4S-437.1,267.1-444.5,267.1z
		 M-440.3,273.8c0.9,0,1.7,0.7,1.7,1.7c0,0.9-0.7,1.7-1.7,1.7c-0.9,0-1.7-0.7-1.7-1.7C-442,274.5-441.2,273.8-440.3,273.8z
		 M-437.8,287.2h-13.5c-0.4,0-0.6-0.4-0.4-0.7l4.8-9.7c0.2-0.4,0.7-0.4,0.9,0l2.9,5.7c0.2,0.4,0.7,0.4,0.9,0l1-2
		c0.2-0.4,0.7-0.4,0.9,0l3,5.9C-437.2,286.8-437.4,287.2-437.8,287.2z"/>
</g>
</svg>
