<?xml version="1.0" encoding="utf-8"?>
<!-- Generator: Adobe Illustrator 19.1.1, SVG Export Plug-In . SVG Version: 6.00 Build 0)  -->
<svg version="1.1" id="Layer_1" xmlns="http://www.w3.org/2000/svg" xmlns:xlink="http://www.w3.org/1999/xlink" x="0px" y="0px"
	 viewBox="0 0 17 17" style="enable-background:new 0 0 17 17;" xml:space="preserve">
<style type="text/css">
	.st0{fill-rule:evenodd;clip-rule:evenodd;fill:none;stroke:#FFFFFF;stroke-miterlimit:10;}
	.st1{fill-rule:evenodd;clip-rule:evenodd;fill:#FFFFFF;}
</style>
<g>
	<g>
		<path class="st0" d="M1.3,8c0.2-3.6,3.3-6.5,7-6.5c3,0,5.5,1.9,6.5,4.5"/>
		<path class="st1" d="M16.3,7.5h-4.4c-0.4,0-0.6-0.5-0.3-0.7L16,2.4c0.3-0.3,0.7-0.1,0.7,0.3v4.4C16.7,7.3,16.5,7.5,16.3,7.5z"/>
	</g>
	<g>
		<path class="st0" d="M15.7,9.8c-0.4,3.5-3.4,6.2-7,6.2c-3,0-5.5-1.9-6.5-4.5"/>
		<path class="st1" d="M0.7,8.9h4.4c0.4,0,0.6,0.5,0.3,0.8L1,14c-0.3,0.3-0.8,0.1-0.8-0.3V9.4C0.3,9.1,0.5,8.9,0.7,8.9z"/>
	</g>
	<circle class="st1" cx="8.4" cy="8.7" r="1.5"/>
</g>
</svg>
