<?xml version="1.0" encoding="utf-8"?>
<!-- Generator: Adobe Illustrator 16.0.0, SVG Export Plug-In . SVG Version: 6.00 Build 0)  -->
<!DOCTYPE svg PUBLIC "-//W3C//DTD SVG 1.1//EN" "http://www.w3.org/Graphics/SVG/1.1/DTD/svg11.dtd">
<svg version="1.1" id="Layer_1" xmlns="http://www.w3.org/2000/svg" xmlns:xlink="http://www.w3.org/1999/xlink" x="0px" y="0px"
	 width="20px" height="20px" viewBox="0 0 20 20" enable-background="new 0 0 20 20" xml:space="preserve">
<g>
	<g>
		<defs>
			<path id="SVGID_1_" d="M12.255,16.354c1.314-0.016,2.56-0.208,3.663-0.579c0.277-0.094,0.542-0.197,0.793-0.31
				c-0.307,0.75-0.758,1.375-1.345,1.84c-1.159,0.854-2.527,1.439-4.013,1.663C11.726,18.327,12.025,17.42,12.255,16.354
				 M6.075,18.176c-0.028-0.022-0.057-0.043-0.09-0.06c-0.517-0.251-0.726-1.403-0.456-3.165c0.992,0.446,2.074,0.8,3.209,1.043
				c0.861,0.184,1.719,0.297,2.558,0.341c-0.411,1.788-0.938,2.727-1.288,2.727c-0.022,0-0.044,0.003-0.065,0.006
				C8.559,19.059,7.247,18.741,6.075,18.176 M1.279,12.482C1.2,12.18,1.15,11.872,1.129,11.559c0.311,0.441,0.689,0.874,1.14,1.29
				c0.681,0.629,1.488,1.191,2.389,1.674c-0.184,1.028-0.235,1.96-0.119,2.712C2.987,16.061,1.826,14.4,1.279,12.482 M12.841,9.984
				c0-0.363-0.005-0.728-0.016-1.092c1.157-0.077,2.229-0.377,3.106-0.882c0.812,1.607,1.248,3.302,1.244,4.902
				c-0.001,0.464-0.041,0.905-0.114,1.321c-0.418,0.256-0.898,0.478-1.44,0.66c-0.96,0.323-2.042,0.5-3.189,0.529
				C12.708,13.769,12.841,11.85,12.841,9.984 M8.933,15.085c-1.152-0.247-2.241-0.613-3.227-1.076
				c0.324-1.456,0.926-3.221,1.882-5.18c0.139-0.284,0.28-0.563,0.425-0.836c0.668,0.3,1.395,0.538,2.157,0.701
				c0.579,0.125,1.158,0.192,1.725,0.211c0.01,0.349,0.015,0.708,0.015,1.079c0,2.19-0.175,4.009-0.428,5.429
				C10.651,15.377,9.794,15.269,8.933,15.085 M2.901,12.167c-0.79-0.73-1.333-1.503-1.61-2.271c0.219-0.86,0.644-1.724,1.268-2.551
				c0.593-0.785,1.33-1.491,2.175-2.099c0.244,0.441,0.585,0.871,1.02,1.279C6.168,6.912,6.65,7.263,7.185,7.57
				C7.037,7.849,6.893,8.133,6.752,8.421c-0.825,1.691-1.499,3.505-1.895,5.152C4.124,13.159,3.464,12.687,2.901,12.167
				 M12.209,3.522c1.058,0.787,2.027,1.803,2.838,2.991c0.154,0.226,0.299,0.455,0.437,0.686c-0.744,0.429-1.683,0.686-2.697,0.758
				C12.701,6.352,12.511,4.808,12.209,3.522 M10.365,7.784C9.692,7.64,9.052,7.434,8.463,7.175c0.868-1.518,1.817-2.838,2.753-3.82
				c0.293,1.151,0.538,2.699,0.642,4.618C11.365,7.953,10.863,7.891,10.365,7.784 M6.391,5.845C6.005,5.485,5.713,5.11,5.517,4.733
				C6.388,4.208,7.353,3.781,8.38,3.472c0.611-0.184,1.23-0.32,1.847-0.415c-0.891,0.998-1.78,2.266-2.595,3.698
				C7.167,6.486,6.749,6.181,6.391,5.845 M4.39,2.881C4.377,2.929,4.363,2.977,4.353,3.025C4.259,3.464,4.27,3.913,4.381,4.359
				C3.38,5.05,2.51,5.867,1.817,6.784c-0.211,0.279-0.4,0.564-0.571,0.851C1.761,5.73,2.882,4.073,4.39,2.881 M5.263,3.22
				c0.103-0.482,0.393-0.914,0.842-1.271c1.086-0.324,2.349-0.247,3.676,0.24C9.222,2.286,8.664,2.415,8.112,2.581
				C7.086,2.889,6.119,3.31,5.231,3.822C5.211,3.618,5.221,3.417,5.263,3.22 M12.809,1.994c0.319-0.207,0.613-0.349,0.859-0.407
				c0.466,0.187,0.929,0.426,1.367,0.728C14.332,2.139,13.583,2.032,12.809,1.994 M11.242,0.998c0.378,0.042,0.78,0.107,1.194,0.204
				c-0.259,0.139-0.528,0.313-0.801,0.522C11.513,1.449,11.382,1.207,11.242,0.998 M10.234,1.363
				c-0.42-0.161-0.836-0.286-1.247-0.375c0.329-0.037,0.662-0.058,1-0.058c0.158,0.002,0.353,0.192,0.556,0.561
				C10.441,1.447,10.337,1.403,10.234,1.363 M0,10c0,0.951,0.137,1.87,0.386,2.741c0.015,0.059,0.029,0.117,0.046,0.176
				c0.003,0.011,0.008,0.021,0.013,0.033C1.707,17.028,5.513,20,10,20c2.076,0,4.006-0.636,5.606-1.723
				c0.016-0.008,0.032-0.017,0.047-0.027c0.095-0.064,0.187-0.132,0.276-0.204c1.84-1.359,3.199-3.333,3.771-5.617
				c0.032-0.105,0.061-0.212,0.084-0.32c0.005-0.025,0.007-0.05,0.008-0.076C19.928,11.376,20,10.696,20,10
				c0-1.35-0.264-2.66-0.786-3.892c-0.1-0.237-0.373-0.348-0.609-0.247c-0.237,0.099-0.347,0.373-0.247,0.609
				C18.831,7.587,19.07,8.775,19.07,10c0,0.75-0.094,1.479-0.267,2.178c-0.137,0.44-0.379,0.848-0.712,1.217
				c0.008-0.158,0.014-0.318,0.014-0.48c0.004-1.785-0.49-3.669-1.405-5.44c0.671-0.576,1.099-1.288,1.246-2.084
				c0.047-0.252-0.12-0.495-0.373-0.542c-0.252-0.047-0.496,0.12-0.542,0.373c-0.098,0.526-0.371,1.009-0.798,1.42
				c-0.133-0.22-0.271-0.438-0.418-0.653c-0.816-1.197-1.787-2.232-2.848-3.058c1.401,0.092,2.697,0.432,3.74,1.015
				c0.164,0.093,0.381,0.09,0.534-0.038c0.198-0.164,0.224-0.458,0.059-0.655C15.801,1.156,13.21,0,10,0C4.486,0,0,4.486,0,10"/>
		</defs>
		<use xlink:href="#SVGID_1_"  overflow="visible" fill="#FFFFFF"/>
		<clipPath id="SVGID_2_">
			<use xlink:href="#SVGID_1_"  overflow="visible"/>
		</clipPath>
		<rect clip-path="url(#SVGID_2_)" fill="#FFFFFF" width="20" height="20"/>
	</g>
</g>
</svg>
